<svg width="24" height="24" viewBox="0 0 24 24" fill="none" xmlns="http://www.w3.org/2000/svg">
<path d="M17 14V2" stroke="white" stroke-width="2" stroke-linecap="round" stroke-linejoin="round"/>
<path d="M8.99998 18.12L9.99998 14H4.16998C3.85949 14 3.55327 13.9277 3.27556 13.7889C2.99784 13.65 2.75628 13.4484 2.56998 13.2C2.38369 12.9516 2.25779 12.6633 2.20224 12.3578C2.1467 12.0523 2.16305 11.7381 2.24998 11.44L4.57998 3.44C4.70115 3.02457 4.95379 2.65964 5.29998 2.4C5.64618 2.14036 6.06724 2 6.49998 2H20C20.5304 2 21.0391 2.21071 21.4142 2.58579C21.7893 2.96086 22 3.46957 22 4V12C22 12.5304 21.7893 13.0391 21.4142 13.4142C21.0391 13.7893 20.5304 14 20 14H17.24C16.8679 14.0002 16.5032 14.1042 16.187 14.3003C15.8708 14.4964 15.6156 14.7768 15.45 15.11L12 22C11.5284 21.9942 11.0642 21.8818 10.6422 21.6714C10.2201 21.461 9.85105 21.1579 9.56258 20.7848C9.2741 20.4117 9.07367 19.9782 8.97625 19.5168C8.87883 19.0554 8.88694 18.5779 8.99998 18.12Z" stroke="white" stroke-width="2" stroke-linecap="round" stroke-linejoin="round"/>
</svg>
