<svg width="50" height="50" viewBox="0 0 50 50" fill="none" xmlns="http://www.w3.org/2000/svg">
<path d="M33.3333 43.75V39.5833C33.3333 37.3732 32.4554 35.2536 30.8926 33.6908C29.3298 32.128 27.2101 31.25 25 31.25H12.5C10.2899 31.25 8.17025 32.128 6.60745 33.6908C5.04465 35.2536 4.16667 37.3732 4.16667 39.5833V43.75" stroke="white" stroke-width="4" stroke-linecap="round" stroke-linejoin="round"/>
<path d="M18.75 22.9167C23.3524 22.9167 27.0833 19.1857 27.0833 14.5833C27.0833 9.98096 23.3524 6.25 18.75 6.25C14.1476 6.25 10.4167 9.98096 10.4167 14.5833C10.4167 19.1857 14.1476 22.9167 18.75 22.9167Z" stroke="white" stroke-width="4" stroke-linecap="round" stroke-linejoin="round"/>
<path d="M45.8333 43.75V39.5833C45.832 37.7369 45.2174 35.9433 44.0862 34.484C42.9549 33.0247 41.3711 31.9824 39.5833 31.5208" stroke="white" stroke-width="4" stroke-linecap="round" stroke-linejoin="round"/>
<path d="M33.3333 6.52084C35.1259 6.9798 36.7147 8.0223 37.8492 9.48398C38.9838 10.9457 39.5997 12.7434 39.5997 14.5938C39.5997 16.4441 38.9838 18.2418 37.8492 19.7035C36.7147 21.1652 35.1259 22.2077 33.3333 22.6667" stroke="white" stroke-width="4" stroke-linecap="round" stroke-linejoin="round"/>
</svg>
